<svg width="112" height="142" viewBox="0 0 112 142" fill="none" xmlns="http://www.w3.org/2000/svg">
<mask id="mask0_1_59" style="mask-type:luminance" maskUnits="userSpaceOnUse" x="0" y="0" width="112" height="142">
<path d="M112 0H0V142H112V0Z" fill="white"/>
</mask>
<g mask="url(#mask0_1_59)">
<path d="M58.1375 69.3274C58.1375 69.3274 20.0733 74.3198 20.4704 52.0996C20.9376 25.8861 47.969 5.59207 69.2136 0C69.2136 0 45.3627 4.60321 29.2006 15.9045C13.0385 27.2058 0 42.9518 0 56.2756C0 69.5995 13.172 76.0564 19.1656 77.1314C25.1592 78.2065 37.6737 78.8816 58.1375 69.3274Z" fill="#00A15D"/>
<path d="M3.56622 142C3.56622 142 36.5445 129.744 62.7383 105.26C88.9322 80.7767 93.6208 43.0206 39.7115 53.8498C39.7115 53.8498 61.7639 44.4057 77.6891 44.4057C93.6143 44.4057 111.985 47.5066 111.985 66.5672C111.999 92.4739 64.4071 139.281 3.56622 142Z" fill="#0167AD"/>
<path d="M100.216 10.3745C103.73 16.6591 100.957 25.1041 94.0222 29.2353C87.0871 33.3665 78.6205 31.6264 75.1066 25.3418C71.5928 19.0572 74.4924 10.8362 81.2973 6.48106C87.2174 2.69101 96.702 4.08989 100.216 10.3745Z" fill="#F05923"/>
</g>
</svg>
